<?xml version="1.0" encoding="UTF-8" standalone="no"?>
<svg
   xmlns:dc="http://purl.org/dc/elements/1.1/"
   xmlns:cc="http://creativecommons.org/ns#"
   xmlns:rdf="http://www.w3.org/1999/02/22-rdf-syntax-ns#"
   xmlns:svg="http://www.w3.org/2000/svg"
   xmlns="http://www.w3.org/2000/svg"
   xmlns:sodipodi="http://sodipodi.sourceforge.net/DTD/sodipodi-0.dtd"
   xmlns:inkscape="http://www.inkscape.org/namespaces/inkscape"
   version="1.1"
   id="Layer_1"
   inkscape:version="0.92.4 (5da689c313, 2019-01-14)"
   sodipodi:docname="HattoMap.svg"
   x="0px"
   y="0px"
   viewBox="-141 107.4 168.3 202.49999"
   xml:space="preserve"
   width="168.3"
   height="202.5"><metadata
   id="metadata2602"><rdf:RDF><cc:Work
       rdf:about=""><dc:format>image/svg+xml</dc:format><dc:type
         rdf:resource="http://purl.org/dc/dcmitype/StillImage" /><dc:title></dc:title></cc:Work></rdf:RDF></metadata><defs
   id="defs2600" /><sodipodi:namedview
   pagecolor="#ffffff"
   bordercolor="#666666"
   borderopacity="1"
   objecttolerance="10"
   gridtolerance="10"
   guidetolerance="10"
   inkscape:pageopacity="0"
   inkscape:pageshadow="2"
   inkscape:window-width="1920"
   inkscape:window-height="986"
   id="namedview2598"
   showgrid="false"
   inkscape:zoom="2.5214998"
   inkscape:cx="144.67309"
   inkscape:cy="-20.9"
   inkscape:window-x="-11"
   inkscape:window-y="-11"
   inkscape:window-maximized="1"
   inkscape:current-layer="Layer_1"
   fit-margin-top="0"
   fit-margin-left="0"
   fit-margin-right="0"
   fit-margin-bottom="0" />
<path
   id="Hawaii"
   d="m -475.4,552 1.9,-3.6 2.3,-0.3 0.3,0.8 -2.1,3.1 z m 10.2,-3.7 6.1,2.6 2.1,-0.3 1.6,-3.9 -0.6,-3.4 -4.2,-0.5 -4,1.8 z m 30.7,10 3.7,5.5 2.4,-0.3 1.1,-0.5 1.5,1.3 3.7,-0.2 1,-1.5 -2.9,-1.8 -1.9,-3.7 -2.1,-3.6 -5.8,2.9 z m 20.2,8.9 1.3,-1.9 4.7,1 0.6,-0.5 6.1,0.6 -0.3,1.3 -2.6,1.5 -4.4,-0.3 z m 5.3,5.2 1.9,3.9 3.1,-1.1 0.3,-1.6 -1.6,-2.1 -3.7,-0.3 z m 7,-1.1 2.3,-2.9 4.7,2.4 4.4,1.1 4.4,2.7 v 1.9 l -3.6,1.8 -4.8,1 -2.4,-1.5 z m 16.6,15.5 1.6,-1.3 3.4,1.6 7.6,3.6 3.4,2.1 1.6,2.4 1.9,4.4 4,2.6 -0.3,1.3 -3.9,3.2 -4.2,1.5 -1.5,-0.6 -3.1,1.8 -2.4,3.2 -2.3,2.9 -1.8,-0.2 -3.6,-2.6 -0.3,-4.5 0.6,-2.4 -1.6,-5.7 -2.1,-1.8 -0.2,-2.6 2.3,-1 2.1,-3.1 0.5,-1 -1.6,-1.8 z"
   class="area active"
   title=""
   inkscape:connector-curvature="0" />
<path
   id="Alaska"
   d="m -550.4,486.4 -0.3,85.3 1.6,1 3.1,0.2 1.5,-1.1 h 2.6 l 0.2,2.9 7,6.8 0.5,2.6 3.4,-1.9 0.6,-0.2 0.3,-3.1 1.5,-1.6 1.1,-0.2 1.9,-1.5 2.9,2.1 0.6,2.9 1.9,1.1 1.1,2.4 3.9,1.8 3.4,6 2.7,3.9 2.3,2.7 1.5,3.7 5,1.8 5.2,2.1 1,4.4 0.5,3.1 -1,3.4 -1.8,2.3 -1.6,-0.8 -1.5,-3.1 -2.7,-1.5 -1.8,-1.1 -0.8,0.8 1.5,2.7 0.2,3.7 -1.1,0.5 -1.9,-1.9 -2.1,-1.3 0.5,1.6 1.3,1.8 -0.8,0.8 c 0,0 -0.8,-0.3 -1.3,-1 -0.5,-0.6 -2.1,-3.4 -2.1,-3.4 l -1,-2.3 c 0,0 -0.3,1.3 -1,1 -0.7,-0.3 -1.3,-1.5 -1.3,-1.5 l 1.8,-1.9 -1.5,-1.5 v -5 h -0.8 l -0.8,3.4 -1.1,0.5 -1,-3.7 -0.6,-3.7 -0.8,-0.5 0.3,5.7 v 1.1 l -1.5,-1.3 -3.6,-6 -2.1,-0.5 -0.6,-3.7 -1.6,-2.9 -1.6,-1.1 v -2.3 l 2.1,-1.3 -0.5,-0.3 -2.6,0.6 -3.4,-2.4 -2.6,-2.9 -4.8,-2.6 -4,-2.6 1.3,-3.2 v -1.6 l -1.8,1.6 -2.9,1.1 -3.7,-1.1 -5.7,-2.4 h -5.5 l -0.6,0.5 -6.5,-3.9 -2.1,-0.3 -2.7,-5.8 -3.6,0.3 -3.6,1.5 0.5,4.5 1.1,-2.9 1,0.3 -1.5,4.4 3.2,-2.7 0.6,1.6 -3.9,4.4 -1.3,-0.3 -0.5,-1.9 -1.3,-0.8 -1.3,1.1 -2.7,-1.8 -3.1,2.1 -1.8,2.1 -3.4,2.1 -4.7,-0.2 -0.5,-2.1 3.7,-0.6 v -1.3 l -2.3,-0.6 1,-2.4 2.3,-3.9 v -1.8 l 0.2,-0.8 4.4,-2.3 1,1.3 h 2.7 l -1.3,-2.6 -3.7,-0.3 -5,2.7 -2.4,3.4 -1.8,2.6 -1.1,2.3 -4.2,1.5 -3.1,2.6 -0.3,1.6 2.3,1 0.8,2.1 -2.7,3.2 -6.5,4.2 -7.8,4.2 -2.1,1.1 -5.3,1.1 -5.3,2.3 1.8,1.3 -1.5,1.5 -0.5,1.1 -2.7,-1 -3.2,0.2 -0.8,2.3 h -1 l 0.3,-2.4 -3.6,1.3 -2.9,1 -3.4,-1.3 -2.9,1.9 h -3.2 l -2.1,1.3 -1.6,0.8 -2.1,-0.3 -2.6,-1.1 -2.3,0.6 -1,1 -1.6,-1.1 v -1.9 l 3.1,-1.3 6.3,0.6 4.4,-1.6 2.1,-2.1 2.9,-0.6 1.8,-0.8 2.7,0.2 1.6,1.3 1,-0.3 2.3,-2.7 3.1,-1 3.4,-0.6 1.3,-0.3 0.6,0.5 h 0.8 l 1.3,-3.7 4,-1.5 1.9,-3.7 2.3,-4.5 1.6,-1.5 0.3,-2.6 -1.6,1.3 -3.4,0.6 -0.6,-2.4 -1.3,-0.3 -1,1 -0.2,2.9 -1.5,-0.2 -1.5,-5.8 -1.3,1.3 -1.1,-0.5 -0.3,-1.9 -4,0.2 -2.1,1.1 -2.6,-0.3 1.5,-1.5 0.5,-2.6 -0.6,-1.9 1.5,-1 1.3,-0.2 -0.6,-1.8 v -4.4 l -1,-1 -0.8,1.5 h -6.1 l -1.5,-1.3 -0.6,-3.9 -2.1,-3.6 v -1 l 2.1,-0.8 0.2,-2.1 1.1,-1.1 -0.8,-0.5 -1.3,0.5 -1.1,-2.7 1,-5 4.5,-3.2 2.6,-1.6 1.9,-3.7 2.7,-1.3 2.6,1.1 0.3,2.4 2.4,-0.3 3.2,-2.4 1.6,0.6 1,0.6 h 1.6 l 2.3,-1.3 0.8,-4.4 c 0,0 0.3,-2.9 1,-3.4 0.7,-0.5 1,-1 1,-1 l -1.1,-1.9 -2.6,0.8 -3.2,0.8 -1.9,-0.5 -3.6,-1.8 -5,-0.2 -3.6,-3.7 0.5,-3.9 0.6,-2.4 -2.1,-1.8 -1.9,-3.7 0.5,-0.8 6.8,-0.5 h 2.1 l 1,1 h 0.6 l -0.2,-1.6 3.9,-0.6 2.6,0.3 1.5,1.1 -1.5,2.1 -0.5,1.5 2.7,1.6 5,1.8 1.8,-1 -2.3,-4.4 -1,-3.2 1,-0.8 -3.4,-1.9 -0.5,-1.1 0.5,-1.6 -0.8,-3.9 -2.9,-4.7 -2.4,-4.2 2.9,-1.9 h 3.2 l 1.8,0.6 4.2,-0.2 3.7,-3.6 1.1,-3.1 3.7,-2.4 1.6,1 2.7,-0.6 3.7,-2.1 1.1,-0.2 1,0.8 4.5,-0.2 2.7,-3.1 h 1.1 l 3.6,2.4 1.9,2.1 -0.5,1.1 0.6,1.1 1.6,-1.6 3.9,0.3 0.3,3.7 1.9,1.5 7.1,0.6 6.3,4.2 1.5,-1 5.2,2.6 2.1,-0.6 1.9,-0.8 4.8,1.9 z m -115.1,28.9 2.1,5.3 -0.2,1 -2.9,-0.3 -1.8,-4 -1.8,-1.5 h -2.4 l -0.2,-2.6 1.8,-2.4 1.1,2.4 1.5,1.5 z m -2.6,33.5 3.7,0.8 3.7,1 0.8,1 -1.6,3.7 -3.1,-0.2 -3.4,-3.6 z m -20.7,-14.1 1.1,2.6 1.1,1.6 -1.1,0.8 -2.1,-3.1 v -1.9 z m -13.7,73.1 3.4,-2.3 3.4,-1 2.6,0.3 0.5,1.6 1.9,0.5 1.9,-1.9 -0.3,-1.6 2.7,-0.6 2.9,2.6 -1.1,1.8 -4.4,1.1 -2.7,-0.5 -3.7,-1.1 -4.4,1.5 -1.6,0.3 z m 48.9,-4.5 1.6,1.9 2.1,-1.6 -1.5,-1.3 z m 2.9,3 1.1,-2.3 2.1,0.3 -0.8,1.9 h -2.4 z m 23.6,-1.9 1.5,1.8 1,-1.1 -0.8,-1.9 z m 8.8,-12.5 1.1,5.8 2.9,0.8 5,-2.9 4.4,-2.6 -1.6,-2.3 0.5,-2.4 -2.1,1.3 -2.9,-0.8 1.6,-1.1 1.9,0.8 3.9,-1.8 0.5,-1.5 -2.4,-0.8 0.8,-1.9 -2.7,1.9 -4.7,3.6 -4.8,2.9 z m 42.3,-19.8 2.4,-1.5 -1,-1.8 -1.8,1 z"
   class="area"
   title=""
   inkscape:connector-curvature="0" />
<path
   id="Florida"
   d="m 46.9,478.2 2.3,7.3 3.7,9.7 5.3,9.4 3.7,6.3 4.8,5.5 4,3.7 1.6,2.9 -1.1,1.3 -0.7,1.4 2.9,7.4 2.9,2.9 2.6,5.3 3.6,5.8 4.5,8.2 1.3,7.6 0.5,12 0.6,1.8 -0.3,3.4 -2.4,1.3 0.3,1.9 -0.6,1.9 0.3,2.4 0.5,1.9 -2.7,3.2 -3.1,1.5 -3.9,0.2 -1.5,1.6 -2.4,1 -1.3,-0.5 -1.1,-1 -0.3,-2.9 -0.8,-3.4 -3.4,-5.2 -3.6,-2.3 -3.9,-0.3 -0.8,1.3 -3.1,-4.4 -0.6,-3.6 -2.6,-4 -1.8,-1.1 -1.6,2.1 -1.8,-0.3 -2.1,-5 -2.9,-3.9 -2.9,-5.3 -2.6,-3.1 -3.6,-3.7 2.1,-2.4 3.2,-5.5 -0.2,-1.6 -4.5,-1 -1.6,0.6 0.3,0.6 2.6,1 -1.5,4.5 -0.8,0.5 -1.8,-4 -1.3,-4.8 -0.3,-2.7 1.5,-4.7 v -9.5 l -3,-3.7 -1.3,-3.1 -5.2,-1.3 -1.9,-0.6 -1.6,-2.6 -3.4,-1.6 -1.1,-3.4 -2.7,-1 -2.4,-3.7 -4.2,-1.5 -2.9,-1.5 h -2.6 l -4,0.8 -0.2,1.9 0.8,1 -0.5,1.1 -3.1,-0.2 -3.7,3.6 -3.6,1.9 H -20 l -3.2,1.3 -0.3,-2.7 -1.6,-1.9 -2.9,-1.1 -1.6,-1.5 -8.1,-3.9 -7.6,-1.8 -4.4,0.6 -6,0.5 -6,2.1 -3.5,0.6 -0.2,-8 -2.6,-1.9 -1.8,-1.8 0.3,-3.1 10.2,-1.3 25.5,-2.9 6.8,-0.6 5.4,0.3 2.6,3.9 1.5,1.5 8.1,0.5 10.8,-0.6 21.5,-1.3 5.4,-0.7 h 4.6 l 0.2,2.9 3.8,0.8 0.3,-4.8 -1.6,-4.5 1,-0.7 5.1,0.5 z m 12.5,132.4 2.4,-0.6 1.3,-0.2 1.5,-2.3 2.3,-1.6 1.3,0.5 1.7,0.3 0.4,1.1 -3.5,1.2 -4.2,1.5 -2.3,1.2 z m 13.5,-5 1.2,1.1 2.7,-2.1 5.3,-4.2 3.7,-3.9 2.5,-6.6 1,-1.7 0.2,-3.4 -0.7,0.5 -1,2.8 -1.5,4.6 -3.2,5.3 -4.4,4.2 -3.4,1.9 z"
   class="area"
   title=""
   inkscape:connector-curvature="0" />
<path
   id="South_Carolina"
   d="m 52.7,445.6 -1.8,1 -2.6,-1.3 -0.6,-2.1 -1.3,-3.6 -2.3,-2.1 -2.6,-0.6 -1.6,-4.8 -2.7,-6 -4.2,-1.9 -2.1,-1.9 -1.3,-2.6 -2.1,-2 -2.3,-1.3 -2.3,-2.9 -3.1,-2.3 -4.5,-1.8 -0.5,-1.5 -2.4,-2.9 -0.5,-1.5 -3.4,-5.2 -3.4,0.2 -4,-2.4 -1.3,-1.3 -0.3,-1.8 0.8,-1.9 2.3,-1 -0.3,-2.1 6.1,-2.6 9.1,-4.5 7.3,-0.8 16.5,-0.5 2.3,1.9 1.6,3.2 4.4,-0.5 12.6,-1.5 2.9,0.8 12.6,7.6 10.1,8.1 -5.4,5.5 -2.6,6.1 -0.5,6.3 -1.6,0.8 -1.1,2.7 -2.4,0.6 -2.1,3.6 -2.7,2.7 -2.3,3.4 -1.6,0.8 -3.6,3.4 -2.9,0.2 1,3.2 -5,5.5 z"
   class="area"
   title=""
   inkscape:connector-curvature="0" />
<path
   id="Georgia"
   d="m -18.9,390.7 -4.8,0.8 -8.4,1.1 -8.6,0.9 v 2.2 l 0.2,2.1 0.6,3.4 3.4,7.9 2.4,9.9 1.5,6.1 1.6,4.8 1.5,7 2.1,6.3 2.6,3.4 0.5,3.4 1.9,0.8 0.2,2.1 -1.8,4.8 -0.5,3.2 -0.2,1.9 1.6,4.4 0.3,5.3 -0.8,2.4 0.6,0.8 1.5,0.8 0.6,3.4 2.6,3.9 1.5,1.5 7.9,0.2 10.8,-0.6 21.5,-1.3 5.4,-0.7 h 4.6 l 0.2,2.9 2.6,0.8 0.3,-4.4 -1.6,-4.5 1.1,-1.6 5.8,0.8 5,0.3 -0.8,-6.3 2.3,-10 1.5,-4.2 -0.5,-2.6 3.3,-6.2 -0.5,-1.4 -1.9,0.7 -2.6,-1.3 -0.6,-2.1 -1.3,-3.6 -2.3,-2.1 -2.6,-0.6 -1.6,-4.8 -2.9,-6.3 -4.2,-1.9 -2.1,-1.9 -1.3,-2.6 -2.1,-1.9 -2.3,-1.3 -2.3,-2.9 -3.1,-2.3 -4.5,-1.8 -0.5,-1.5 -2.4,-2.9 -0.5,-1.5 -3.4,-4.9 -3.4,0.2 -4.1,-3 -1.3,-1.3 -0.3,-1.8 0.8,-1.9 2.4,-1.2 -1.1,-1.2 0.1,-0.3 -5.8,1 -7,0.8 z"
   class="area"
   title=""
   inkscape:connector-curvature="0" />
<path
   id="Alabama"
   d="m -82.9,499.5 -1.6,-15.2 -2.7,-18.8 0.2,-14.1 0.8,-31 -0.2,-16.7 0.2,-6.4 7.8,-0.4 27.8,-2.6 8.9,-0.7 -0.1,2.2 0.2,2.1 0.6,3.4 3.4,7.9 2.4,9.9 1.5,6.1 1.6,4.8 1.5,7 2.1,6.3 2.6,3.4 0.5,3.4 1.9,0.8 0.2,2.1 -1.8,4.8 -0.5,3.2 -0.2,1.9 1.6,4.4 0.3,5.3 -0.8,2.4 0.6,0.8 1.5,0.8 1,2.5 h -6.3 l -6.8,0.6 -25.5,2.9 -10.4,1.4 -0.1,3.8 1.8,1.8 2.6,1.9 0.6,7.9 -5.5,2.6 -2.7,-0.3 2.7,-1.9 v -1 l -3.1,-6 -2.3,-0.6 -1.5,4.4 -1.3,2.7 -0.6,-0.2 z"
   class="area"
   title=""
   inkscape:connector-curvature="0" />
<path
   id="North_Carolina"
   d="m 123.6,331.2 1.7,4.7 3.6,6.5 2.4,2.4 0.6,2.3 -2.4,0.2 0.8,0.6 -0.3,4.2 -2.6,1.3 -0.6,2.1 -1.3,2.9 -3.7,1.6 -2.4,-0.3 -1.5,-0.2 -1.6,-1.3 0.3,1.3 v 1 h 1.9 l 0.8,1.3 -1.9,6.3 h 4.2 l 0.6,1.6 2.3,-2.3 1.3,-0.5 -1.9,3.6 -3.1,4.8 h -1.3 l -1.1,-0.5 -2.7,0.6 -5.2,2.4 -6.5,5.3 -3.4,4.7 -1.9,6.5 -0.5,2.4 -4.7,0.5 -5.5,1.3 -9.9,-8.2 -12.6,-7.6 -2.9,-0.8 -12.6,1.5 -4.3,0.8 -1.6,-3.2 -3,-2.1 -16.5,0.5 -7.3,0.8 -9.1,4.5 -6.1,2.6 -1.6,0.3 -5.8,1 -7,0.8 -6.8,0.5 0.5,-4.1 1.8,-1.5 2.7,-0.6 0.6,-3.7 4.2,-2.7 3.9,-1.5 4.2,-3.6 4.4,-2.1 0.6,-3.1 3.9,-3.9 0.6,-0.2 c 0,0 0,1.1 0.8,1.1 0.8,0 1.9,0.3 1.9,0.3 l 2.3,-3.6 2.1,-0.6 2.3,0.3 1.6,-3.6 2.9,-2.6 0.5,-2.1 v -4 l 4.5,0.7 7.1,-1.3 15.8,-1.9 17.1,-2.6 19.9,-4 19.7,-4.2 11.4,-2.8 z m 3.9,33 2.6,-2.5 3.2,-2.6 1.5,-0.6 0.2,-2 -0.6,-6.1 -1.5,-2.3 -0.6,-1.9 0.7,-0.2 2.7,5.5 0.4,4.4 -0.2,3.4 -3.4,1.4 -2.8,2.4 -1.1,1.2 z"
   class="area"
   title=""
   inkscape:connector-curvature="0" />
<path
   id="Tennessee"
   d="m -11.4,353.3 -51.9,5 -15.8,1.8 -4.6,0.5 h -3.9 v 3.9 l -8.4,0.5 -7,0.6 -11.1,0.1 -0.3,5.8 -2.1,6.3 -1,3 -1.3,4.4 -0.3,2.6 -4,2.3 1.5,3.6 -1,4.4 -1,0.8 7.3,-0.2 24.1,-1.9 5.3,-0.2 8.1,-0.5 27.8,-2.6 10.2,-0.8 8.4,-1 8.4,-1.1 4.8,-0.8 -0.1,-4.5 1.8,-1.5 2.7,-0.6 0.6,-3.7 4.2,-2.7 3.9,-1.5 4.2,-3.6 4.4,-2.1 0.9,-3.5 4.3,-3.9 0.6,-0.2 c 0,0 0,1.1 0.8,1.1 0.8,0 1.9,0.3 1.9,0.3 l 2.3,-3.6 2.1,-0.6 2.3,0.3 1.6,-3.6 2.1,-2.2 0.6,-1 0.2,-3.9 -1.5,-0.3 -2.4,1.9 -7.9,0.2 -12,1.9 z"
   class="area"
   title=""
   inkscape:connector-curvature="0" />
<path
   id="Rhode_Island"
   d="m 165.6,212.5 -0.5,-4.2 -0.8,-4.4 -1.7,-5.9 5.7,-1.5 1.6,1.1 3.4,4.4 2.9,4.4 -2.9,1.5 -1.3,-0.2 -1.1,1.8 -2.4,1.9 z"
   class="area"
   title=""
   inkscape:connector-curvature="0" />
<path
   id="Connecticut"
   d="m 164.7,212.8 -0.6,-4.2 -0.8,-4.4 -1.6,-6 -4.2,0.9 -21.8,4.8 0.6,3.3 1.5,7.3 v 8.1 l -1.1,2.3 1.8,2.1 5,-3.4 3.6,-3.2 1.9,-2.1 0.8,0.6 2.7,-1.5 5.2,-1.1 z"
   class="area"
   title=""
   inkscape:connector-curvature="0" />
<path
   id="Massachusetts"
   d="m 191.5,206.6 2.2,-0.7 0.5,-1.7 1,0.1 1,2.3 -1.3,0.5 -3.9,0.1 z m -9.4,0.8 2.3,-2.6 h 1.6 l 1.8,1.5 -2.4,1 -2.2,1 z m -34.8,-22 17.5,-4.2 2.3,-0.6 2.1,-3.2 3.7,-1.7 2.9,4.4 -2.4,5.2 -0.3,1.5 1.9,2.6 1.1,-0.8 h 1.8 l 2.3,2.6 3.9,6 3.6,0.5 2.3,-1 1.8,-1.8 -0.8,-2.7 -2.1,-1.6 -1.5,0.8 -1,-1.3 0.5,-0.5 2.1,-0.2 1.8,0.8 1.9,2.4 1,2.9 0.3,2.4 -4.2,1.5 -3.9,1.9 -3.9,4.5 -1.9,1.5 v -1 l 2.4,-1.5 0.5,-1.8 -0.8,-3.1 -2.9,1.5 -0.8,1.5 0.5,2.3 -2.1,1 -2.7,-4.5 -3.4,-4.4 -2.1,-1.8 -6.5,1.9 -5.1,1.1 -21.8,4.8 -0.4,-4.9 0.6,-10.6 5.2,-0.9 z"
   class="area"
   title=""
   inkscape:connector-curvature="0" />
<path
   id="Maine"
   d="m 214.7,110 1.9,2.1 2.3,3.7 v 1.9 l -2.1,4.7 -1.9,0.6 -3.4,3.1 -4.8,5.5 c 0,0 -0.6,0 -1.3,0 -0.6,0 -1,-2.1 -1,-2.1 l -1.8,0.2 -1,1.5 -2.4,1.5 -1,1.5 1.6,1.5 -0.5,0.6 -0.5,2.7 -1.9,-0.2 v -1.6 l -0.3,-1.3 -1.5,0.3 -1.8,-3.2 -2.1,1.3 1.3,1.5 0.3,1.1 -0.8,1.3 0.3,3.1 0.2,1.6 -1.6,2.6 -2.9,0.5 -0.3,2.9 -5.3,3.1 -1.3,0.5 -1.6,-1.5 -3.1,3.6 1,3.2 -1.5,1.3 -0.2,4.4 -1.1,6.3 -2.5,-1.2 -0.5,-3.1 -3.9,-1.1 -0.3,-2.7 -7.3,-23.4 -4.2,-13.6 1.4,-0.1 1.5,0.4 v -2.6 l 0.8,-5.5 2.6,-4.7 1.5,-4 -1.9,-2.4 v -6 l 0.8,-1 0.8,-2.7 -0.2,-1.5 -0.2,-4.8 1.8,-4.8 2.9,-8.9 2.1,-4.2 h 1.3 l 1.3,0.2 v 1.1 l 1.3,2.3 2.7,0.6 0.8,-0.8 v -1 l 4,-2.9 1.8,-1.8 1.5,0.2 6,2.4 1.9,1 9.1,29.9 h 6 l 0.8,1.9 0.2,4.8 2.9,2.3 h 0.8 l 0.2,-0.5 -0.5,-1.1 z m -20.9,30.2 1.5,-1.5 1.4,1.1 0.6,2.4 -1.7,0.9 z m 6.7,-5.9 1.8,1.9 c 0,0 1.3,0.1 1.3,-0.2 0,-0.3 0.2,-2 0.2,-2 l 0.9,-0.8 -0.8,-1.8 -2,0.7 z"
   class="area"
   title=""
   inkscape:connector-curvature="0" />
<path
   id="New_Hampshire"
   d="m 172.3,175.1 0.9,-1.1 1.1,-3.3 -2.5,-0.9 -0.5,-3.1 -3.9,-1.1 -0.3,-2.7 -7.3,-23.4 -4.6,-14.5 h -0.9 l -0.6,1.6 -0.6,-0.5 -1,-1 -1.5,1.9 v 5 l 0.3,5.7 1.9,2.7 v 4 l -3.7,5.1 -2.6,1.1 v 1.1 l 1.1,1.8 v 8.6 l -0.8,9.2 -0.2,4.8 1,1.3 -0.2,4.5 -0.5,1.8 1.5,0.9 16.4,-4.7 2.3,-0.6 1.5,-2.6 z"
   class="area"
   title=""
   inkscape:connector-curvature="0" />
<path
   id="Vermont"
   d="m 135.8,186.4 -0.8,-5.7 -2.4,-10 -0.6,-0.3 -2.9,-1.3 0.8,-2.9 -0.8,-2.1 -2.7,-4.6 1,-3.9 -0.8,-5.2 -2.4,-6.5 -0.8,-4.9 26.2,-6.7 0.3,5.8 1.9,2.7 v 4 l -3.7,4 -2.6,1.1 v 1.1 l 1.1,1.8 v 8.6 l -0.8,9.2 -0.2,4.8 1,1.3 -0.2,4.5 -0.5,1.8 0.7,1.6 -7,1.4 z"
   class="area"
   title=""
   inkscape:connector-curvature="0" />
<path
   id="New_York"
   d="m 120.1,222.1 -1.1,-1 -2.6,-0.2 -2.3,-1.9 -1.6,-6.1 -3.5,0.1 -2.4,-2.7 -19.4,4.4 -43,8.7 -7.5,1.2 -0.7,-6.5 1.4,-1.1 1.3,-1.1 1,-1.6 1.8,-1.1 1.9,-1.8 0.5,-1.6 2.1,-2.7 1.1,-1 -0.2,-1 -1.3,-3.1 -1.8,-0.2 -1.9,-6.1 2.9,-1.8 4.4,-1.5 4,-1.3 3.2,-0.5 6.3,-0.2 1.9,1.3 1.6,0.2 2.1,-1.3 2.6,-1.1 5.2,-0.5 2.1,-1.8 1.8,-3.2 1.6,-1.9 h 2.1 l 1.9,-1.1 0.2,-2.3 -1.5,-2.1 -0.3,-1.5 1.1,-2.1 v -1.5 h -1.8 l -1.8,-0.8 -0.8,-1.1 -0.2,-2.6 5.8,-5.5 0.6,-0.8 1.5,-2.9 2.9,-4.5 2.7,-3.7 2.1,-2.4 2.4,-1.8 3.1,-1.2 5.5,-1.3 3.2,0.2 4.5,-1.5 7.6,-2.1 0.5,5 2.4,6.5 0.8,5.2 -1,3.9 2.6,4.5 0.8,2.1 -0.8,2.9 2.9,1.3 0.6,0.3 3.1,11 -0.5,5.1 -0.5,10.8 0.8,5.5 0.8,3.6 1.5,7.3 v 8.1 l -1.1,2.3 1.8,2 0.8,1.7 -1.9,1.8 0.3,1.3 1.3,-0.3 1.5,-1.3 2.3,-2.6 1.1,-0.6 1.6,0.6 2.3,0.2 7.9,-3.9 2.9,-2.7 1.3,-1.5 4.2,1.6 -3.4,3.6 -3.9,2.9 -7.1,5.3 -2.6,1 -5.8,1.9 -4,1.1 -1.2,-0.5 -0.2,-3.7 0.5,-2.7 -0.2,-2.1 -2.8,-1.7 -4.5,-1 -3.9,-1.1 z"
   class="area"
   title=""
   inkscape:connector-curvature="0" />
<path
   id="New_Jersey"
   d="m 119.7,223 -2.1,2.4 v 3.1 l -1.9,3.1 -0.2,1.6 1.3,1.3 -0.2,2.4 -2.3,1.1 0.8,2.7 0.2,1.1 2.7,0.3 1,2.6 3.6,2.4 2.4,1.6 v 0.8 l -3.2,3.1 -1.6,2.3 -1.5,2.7 -2.3,1.3 -1.2,0.7 -0.2,1.2 -0.6,2.6 1.1,2.2 3.2,2.9 4.8,2.3 4,0.6 0.2,1.5 -0.8,1 0.3,2.7 h 0.8 l 2.1,-2.4 0.8,-4.8 2.7,-4 3.1,-6.5 1.1,-5.5 -0.6,-1.1 -0.2,-9.4 -1.5,-3.2 -1.1,0.8 -2.7,0.3 -0.5,-0.5 1.1,-1 2.1,-1.9 0.1,-1.1 -0.4,-3.4 0.5,-2.7 -0.2,-2.1 -2.6,-1.1 -4.5,-1 -3.9,-1.1 z"
   class="area"
   title=""
   inkscape:connector-curvature="0" />
<path
   id="Pennsylvania"
   d="m 113.7,259.2 1.1,-0.6 2.3,-0.6 1.5,-2.7 1.6,-2.3 3.2,-3.1 v -0.8 l -2.4,-1.6 -3.6,-2.4 -1,-2.6 -2.7,-0.3 -0.2,-1.1 -0.8,-2.7 2.3,-1.1 0.2,-2.4 -1.3,-1.3 0.2,-1.6 1.9,-3.1 v -3.1 l 2.3,-2.4 0.2,-1.1 -2.6,-0.2 -2.3,-1.9 -2.4,-5.3 -3,-0.9 -2.3,-2.1 -18.6,4 -43,8.7 -8.9,1.5 -0.5,-7.1 -5.5,5.6 -1.3,0.5 -4.2,3 2.9,19.1 2.5,9.7 3.6,19.3 3.3,-0.6 11.9,-1.5 37.9,-7.7 14.9,-2.8 8.3,-1.6 0.3,-0.2 2.1,-1.6 z"
   class="area"
   title=""
   inkscape:connector-curvature="0" />
<path
   id="Delaware"
   d="m 113.9,263.1 0.6,-2.1 v -1.2 l -1.3,-0.1 -2.1,1.6 -1.5,1.5 1.5,4.2 2.3,5.7 2.1,9.7 1.6,6.3 5,-0.2 6.1,-1.2 -2.3,-7.4 -1,0.5 -3.6,-2.4 -1.8,-4.7 -1.9,-3.6 -2.3,-1 -2.1,-3.6 z"
   class="area"
   title=""
   inkscape:connector-curvature="0" />
<path
   id="Maryland"
   d="m 128.5,288 -6.1,1.3 -5.8,0.2 -1.8,-7.1 -2.1,-9.7 -2.3,-5.7 -1.3,-4.4 -7.5,1.6 -14.9,2.8 -37.5,7.6 1.1,5 1,5.7 0.3,-0.3 2.1,-2.4 2.3,-2.6 2.4,-0.6 1.5,-1.5 1.8,-2.6 1.3,0.6 2.9,-0.3 2.6,-2.1 2,-1.5 1.8,-0.5 1.6,1.1 2.9,1.5 1.9,1.8 1.2,1.5 4.1,1.7 v 2.9 l 5.5,1.3 1.1,0.5 1.4,-2 2.9,2 -1.3,2.5 -0.8,4 -1.8,2.6 v 2.1 l 0.6,1.8 5.1,1.4 4.3,-0.1 3.1,1 2.1,0.3 1,-2.1 -1.5,-2.1 v -1.8 l -2.4,-2.1 -2.1,-5.5 1.3,-5.3 -0.2,-2.1 -1.3,-1.3 c 0,0 1.5,-1.6 1.5,-2.3 0,-0.6 0.5,-2.1 0.5,-2.1 l 1.9,-1.3 1.9,-1.6 0.5,1 -1.5,1.6 -1.3,3.7 0.3,1.1 1.8,0.3 0.5,5.5 -2.1,1 0.3,3.6 0.5,-0.2 1.1,-1.9 1.6,1.8 -1.6,1.3 -0.3,3.4 2.6,3.4 3.9,0.5 1.6,-0.8 3.2,4.2 1.4,0.5 6.7,-2.8 2,-4 z m -16.7,9 1.1,2.5 0.2,1.8 1.1,1.9 c 0,0 0.9,-0.9 0.9,-1.2 0,-0.3 -0.7,-3.1 -0.7,-3.1 l -0.7,-2.3 z"
   class="area"
   title=""
   inkscape:connector-curvature="0" />
<path
   id="West_Virginia"
   d="m 48.1,274.7 1.1,4.9 1.1,6.9 3.6,-2.7 2.3,-3.1 2.5,-0.6 1.5,-1.5 1.8,-2.6 1.2,0.6 2.9,-0.3 2.6,-2.1 2,-1.5 1.8,-0.5 1.3,1 2.2,1.1 1.9,1.8 1.4,1.3 -0.1,4.7 -5.7,-3.1 -4.5,-1.8 -0.2,5.3 -0.5,2.1 -1.6,2.7 -0.6,1.6 -3.1,2.4 -0.5,2.3 -3.4,0.3 -0.3,3.1 -1.1,5.5 h -2.6 l -1.3,-0.8 -1.6,-2.7 -1.8,0.2 -0.3,4.4 -2.1,6.6 -5,10.8 0.8,1.3 -0.2,2.7 -2.1,1.9 -1.5,-0.3 -3.2,2.4 -2.6,-1 -1.8,4.7 c 0,0 -3.7,0.8 -4.4,1 -0.7,0.2 -2.4,-1.3 -2.4,-1.3 l -2.4,2.3 -2.6,0.6 -2.9,-0.8 -1.3,-1.3 -2.2,-3 -3.1,-2 L 8.5,325.5 5.6,321.8 5,319.5 2.4,318 1.6,316.4 1.4,311.1 3.6,311 l 1.9,-0.8 0.2,-2.7 1.6,-1.5 0.2,-5 1,-3.9 1.3,-0.6 1.3,1.1 0.5,1.8 1.8,-1 0.5,-1.6 -1.1,-1.8 v -2.4 l 1,-1.3 2.3,-3.4 1.3,-1.5 2.1,0.5 2.3,-1.6 3.1,-3.4 2.3,-3.9 0.3,-5.7 0.5,-5 v -4.7 l -1.1,-3.1 1,-1.5 1.3,-1.3 3.5,19.8 4.6,-0.8 z"
   class="area"
   title=""
   inkscape:connector-curvature="0" />
<path
   id="Kentucky"
   d="m 13.3,330.5 -2.3,2.7 -4.2,3.6 -4.3,5.9 -1.8,1.8 v 2.1 l -3.9,2.1 -5.7,3.4 -3.5,0.4 -51.9,4.9 -15.8,1.8 -4.6,0.5 h -3.9 l -0.2,4.2 -8.2,0.1 -7,0.6 -10.4,0.2 1.9,-0.2 2.2,-1.8 2.1,-1.1 0.2,-3.2 0.9,-1.8 -1.6,-2.5 0.8,-1.9 2.3,-1.8 2.1,-0.6 2.7,1.3 3.6,1.3 1.1,-0.3 0.2,-2.3 -1.3,-2.4 0.3,-2.3 1.9,-1.5 2.6,-0.6 1.6,-0.6 -0.8,-1.8 -0.6,-1.9 1.1,-0.8 1.1,-3.3 3,-1.7 5.8,-1 3.6,-0.5 1.5,1.9 1.8,0.8 1.8,-3.2 2.9,-1.5 1.9,1.6 0.8,1.1 2.1,-0.5 -0.2,-3.4 2.9,-1.6 1.1,-0.8 1.1,1.6 h 4.7 l 0.8,-2.1 -0.3,-2.3 2.9,-3.6 4.7,-3.9 0.5,-4.5 2.7,-0.3 3.9,-1.8 2.7,-1.9 -0.3,-1.9 -1.5,-1.5 0.6,-2.2 4.1,-0.2 2.4,-0.8 2.9,1.6 1.6,4.4 5.8,0.3 1.8,1.8 2.1,0.2 2.4,-1.5 3.1,0.5 1.3,1.5 2.7,-2.6 1.8,-1.3 h 1.6 l 0.6,2.7 1.8,1 2.4,2.2 0.2,5.5 0.8,1.6 2.6,1.5 0.6,2.3 2.9,3.7 2.6,2.7 z"
   class="area"
   title=""
   inkscape:connector-curvature="0" />
<path
   id="Ohio"
   d="m 22.9,227.7 -6.1,4.1 -3.9,2.3 -3.4,3.7 -4,3.9 -3.2,0.8 -2.9,0.5 -5.5,2.6 -2.1,0.2 -3.4,-3.1 -5.2,0.6 -2.6,-1.5 -2.4,-1.4 -4.9,0.7 -10.2,1.6 -7.8,1.2 1.3,14.6 1.8,13.7 2.6,23.4 0.6,4.8 4.1,-0.1 2.4,-0.8 3.4,1.5 2.1,4.4 h 5.1 l 1.9,2.1 1.8,-0.1 2.5,-1.3 2.5,0.4 2,1.5 1.7,-2.1 2.3,-1.3 2.1,-0.7 0.6,2.7 1.8,1 3.5,2.3 2.2,-0.1 1.1,-1.1 -0.1,-1.4 1.6,-1.5 0.2,-5 1,-3.9 1.5,-1.4 1.5,0.9 0.8,1.2 1.2,-0.2 L 12,295 11.4,294.4 V 292 l 1,-1.3 2.3,-3.4 1.3,-1.5 2.1,0.5 2.3,-1.6 3.1,-3.4 2.3,-3.9 0.2,-5.4 0.5,-5 v -4.7 l -1.1,-3.1 1,-1.5 0.9,-1 -1.4,-9.8 z"
   class="area"
   title=""
   inkscape:connector-curvature="0" />
<path
   id="Michigan"
   d="m -126.9,114.8 1.8,-2.1 2.2,-0.8 5.4,-3.9 2.3,-0.6 0.5,0.5 -5.1,5.1 -3.3,1.9 -2.1,0.9 z m 86.2,32.1 0.6,2.5 3.2,0.2 1.3,-1.2 c 0,0 -0.1,-1.5 -0.4,-1.6 -0.3,-0.2 -1.6,-1.9 -1.6,-1.9 l -2.2,0.2 -1.6,0.2 -0.3,1.1 z m 30.1,63 -3.2,-8.2 -2.3,-9.1 -2.4,-3.2 -2.6,-1.8 -1.6,1.1 -3.9,1.8 -1.9,5 -2.7,3.7 -1.1,0.6 -1.5,-0.6 c 0,0 -2.6,-1.5 -2.4,-2.1 0.2,-0.6 0.5,-5 0.5,-5 l 3.4,-1.3 0.8,-3.4 0.6,-2.6 2.4,-1.6 -0.3,-10 -1.6,-2.3 -1.3,-0.8 -0.8,-2.1 0.8,-0.8 1.6,0.3 0.2,-1.6 -2.6,-2.2 -1.3,-2.6 h -2.6 l -4.5,-1.5 -5.5,-3.4 h -2.7 l -0.6,0.6 -1,-0.5 -3.1,-2.3 -2.9,1.8 -2.9,2.3 0.3,3.6 1,0.3 2.1,0.5 0.5,0.8 -2.6,0.8 -2.6,0.3 -1.5,1.8 -0.3,2.1 0.3,1.6 0.3,5.5 -3.6,2.1 -0.6,-0.2 v -4.2 l 1.3,-2.4 0.6,-2.4 -0.8,-0.8 -1.9,0.8 -1,4.2 -2.7,1.1 -1.8,1.9 -0.2,1 0.6,0.8 -0.6,2.6 -2.3,0.5 v 1.1 l 0.8,2.4 -1.1,6.1 -1.6,4 0.6,4.7 0.5,1.1 -0.8,2.4 -0.3,0.8 -0.3,2.7 3.6,6 2.9,6.5 1.5,4.8 -0.8,4.7 -1,6 -2.4,5.2 -0.3,2.7 -3.3,3.1 4.4,-0.2 21.4,-2.3 7.3,-1 0.1,1.7 6.9,-1.2 10.3,-1.5 3.9,-0.5 0.1,-0.6 0.2,-1.5 2.1,-3.7 2,-1.7 -0.2,-5.1 1.6,-1.6 1.1,-0.3 0.2,-3.6 1.5,-3 1.1,0.6 0.2,0.6 0.8,0.2 1.9,-1 z m -130.4,-66 0.7,-0.6 2.7,-0.8 3.6,-2.3 v -1 l 0.6,-0.6 6,-1 2.4,-1.9 4.4,-2.1 0.2,-1.3 1.9,-2.9 1.8,-0.8 1.3,-1.8 2.3,-2.3 4.4,-2.4 4.7,-0.5 1.1,1.1 -0.3,1 -3.7,1 -1.5,3.1 -2.3,0.8 -0.5,2.4 -2.4,3.2 -0.3,2.6 0.8,0.5 1,-1.1 3.6,-2.9 1.3,1.3 h 2.3 l 3.2,1 1.5,1.1 1.5,3.1 2.7,2.7 3.9,-0.2 1.5,-1 1.6,1.3 1.6,0.5 1.3,-0.8 h 1.1 l 1.6,-1 4,-3.6 3.4,-1.1 6.6,-0.3 4.5,-1.9 2.6,-1.3 1.5,0.2 v 5.7 l 0.5,0.3 2.9,0.8 1.9,-0.5 6.1,-1.6 1.1,-1.1 1.5,0.5 v 7 l 3.2,3.1 1.3,0.6 1.3,1 -1.3,0.3 -0.8,-0.3 -3.7,-0.5 -2.1,0.6 -2.3,-0.2 -3.2,1.5 h -1.8 l -5.8,-1.3 -5.2,0.2 -1.9,2.6 -7,0.6 -2.4,0.8 -1.1,3.1 -1.3,1.1 -0.5,-0.2 -1.5,-1.6 -4.5,2.4 H -88 l -1.1,-1.6 -0.8,0.2 -1.9,4.4 -1,4 -3.2,7 -1.2,-1 -1.4,-1 -1.9,-10.3 -3.5,-1.4 -2.1,-2.3 -12.1,-2.7 -2.9,-1 -8.2,-2.2 -7.9,-1.1 z"
   class="area"
   title=""
   inkscape:connector-curvature="0" />
<path
   id="Wyoming"
   d="m -354.2,176.5 -10.5,-0.8 -32.1,-3.3 -16.2,-2.1 -28.3,-4.1 -19.9,-3 -1.4,11.2 -4,24.3 -5.3,30.4 -1.5,10.5 -1.7,11.9 6.5,0.9 25.9,2.5 20.6,2.3 36.8,4.1 23.8,2.9 4.5,-44.2 1.4,-25.4 z"
   class="area"
   title=""
   inkscape:connector-curvature="0" />
<path
   id="Montana"
   d="m -351.8,155 0.6,-11.2 2.3,-24.8 c 0.5,-5 1.1,-8.5 1.4,-15.4 l 0.9,-14.6 -30.7,-2.8 -29.2,-3.5 -29.3,-4 -32.3,-5.3 -18.4,-3.4 -32.7,-6.9 -4.5,21.3 3.4,7.5 -1.4,4.6 1.8,4.6 3.2,1.4 4.6,10.8 2.7,3.2 0.5,1.1 3.4,1.1 0.5,2.1 -7.1,17.6 v 2.5 l 2.5,3.2 h 0.9 l 4.8,-3 0.7,-1.1 1.6,0.7 -0.2,5.3 2.7,12.6 3,2.5 0.9,0.7 1.8,2.3 -0.5,3.4 0.7,3.4 1.1,0.9 2.3,-2.3 h 2.7 l 3.2,1.6 2.5,-0.9 h 4.1 l 3.8,1.5 2.7,-0.5 0.5,-3 3,-0.7 1.4,1.4 0.5,3.2 1.8,1.4 1.5,-11.6 20.7,3 28.2,4 16.6,1.9 31.4,3.5 11,1.5 1.1,-15.4 z"
   class="area"
   title=""
   inkscape:connector-curvature="0" />
<path
   id="Idaho"
   d="m -546.4,213.7 c -22.6,-4.4 -14.1,-2.9 -21.1,-4.4 l 4.4,-17.5 4.3,-17.7 1.4,-4.2 2.5,-5.9 -1.3,-2.3 h -2.4 l -0.8,-1 0.5,-1.1 0.3,-3.1 4.5,-5.5 1.8,-0.5 1.1,-1.1 0.6,-3.2 0.9,-0.7 3.9,-5.8 3.9,-4.3 0.2,-3.8 -3.4,-2.6 -1.3,-4.4 0.4,-9.7 3.7,-16.5 4.5,-20.8 3.8,-13.5 0.8,-3.8 13,2.5 -4.2,21.5 2.9,7.7 -1.1,4.6 2,4.6 3.2,1.7 4.5,9.8 2.7,3.8 0.6,1.1 3.4,1.1 0.5,2.5 -6.9,16.8 0.3,3.3 2.7,2.9 1.9,0.5 4.8,-3.6 0.4,-0.5 0.2,0.8 0.3,4.1 2.6,12.9 3.5,2.7 0.4,0.8 2.1,2.4 -0.8,2.8 0.7,3.8 1.9,0.9 2.1,-1.6 2.6,-0.5 3.4,1.6 2.5,-0.6 h 3.5 l 4,1.6 2.7,-0.3 0.9,-2.3 2.5,-1.6 0.7,1.7 0.6,2.2 2.3,2.5 -3.8,24 -5.1,29 -4.2,-0.3 -8.2,-1.5 -9.8,-1.8 -12.2,-2.4 -12.5,-2.5 -8.5,-1.8 -9.3,-1.7 z"
   class="area"
   title=""
   inkscape:connector-curvature="0" />
<path
   id="Washington"
   d="m -562.7,119.4 c -8.4,-2.3 -13.5,-3 -19.2,-2.9 -4.3,0.1 -8.1,-0.1 -8.5,-0.5 -0.4,-0.4 -2.1,-0.2 -3.9,0.4 -1.8,0.6 -4.5,0.7 -6.2,0.3 -1.6,-0.5 -4,-1 -5.2,-1.1 -1.2,-0.1 -5.1,-1.2 -8.7,-2.4 -3.9,-1.3 -8.1,-1.9 -10.5,-1.6 -5.8,0.8 -9.3,-1.7 -8.7,-6.2 0.6,-4.2 -1.6,-9.9 -3.8,-9.9 -0.9,0 -2.2,-0.8 -2.9,-1.7 -0.7,-1 -2.7,-1.8 -4.5,-1.9 -1.8,-0.1 -3.6,-0.7 -4,-1.3 -1.3,-1.8 -0.9,-3.8 0.7,-3.8 2.1,0 3.1,-3.2 1.6,-5 -1.6,-1.9 -0.5,-4.8 1.9,-4.8 1.6,0 1.6,-0.2 -0.2,-2.3 -1.7,-1.9 -2,-3.7 -1.8,-9.9 0.1,-4.2 -0.3,-8.6 -0.9,-9.7 -1.2,-2.2 0.5,-10.7 2.1,-10.7 0.5,0 2,1.3 3.5,2.8 3.1,3.3 6.1,5 14.1,7.8 6.3,2.2 8.7,2.1 8.7,-0.4 0,-0.8 0.9,-1.5 1.9,-1.5 1.1,0.1 1.4,0.3 0.5,0.6 -0.7,0.3 -1.4,1.3 -1.4,2.1 0,1.8 3.1,6.9 4.2,6.9 1.2,0 0.5,-16.8 -0.8,-19.3 -2.1,-4 -0.6,-4.5 6.6,-2.4 12.3,3.6 47.9,12.9 60.6,15.8 6.9,1.6 12.6,3 12.8,3.1 0.2,0.1 -0.7,3.4 -1.9,7.2 -3,9.6 -10.9,46.8 -10.9,51.5 0,5 0.2,5 -15.2,0.8 z"
   class="area"
   title=""
   inkscape:connector-curvature="0" />
<path
   id="Texas"
   d="m -351.4,366.1 22.7,1.1 31.1,1.1 -2.3,23.5 -0.3,18.2 0.1,2.1 4.3,3.8 1.7,0.8 1.8,0.3 0.7,-1.3 0.9,0.9 1.7,0.5 1.6,-0.7 1.1,0.4 -0.3,3.4 4.3,1 2.7,0.8 4,0.5 2.2,1.8 3.2,-1.6 2.8,0.4 2,2.8 1.1,0.3 -0.2,2 3.1,1.2 2.8,-1.8 1.5,0.4 2.4,0.2 0.4,1.9 4.6,2 2.7,-0.2 2,-4.1 h 0.3 l 1.1,1.9 4.4,1 3.3,1.2 3.3,0.8 2.1,-0.8 0.8,-2.5 h 3.7 l 1.9,0.8 3.1,-1.6 h 0.7 l 0.4,1.1 h 4.3 l 2.4,-1.3 1.7,0.3 1.4,1.9 2.9,1.7 3.5,1.1 2.7,1.4 2.4,1.6 3.3,-0.9 1.9,1 0.5,10.1 0.3,9.7 0.7,9.5 0.5,4 2.7,4.6 1.1,4.1 3.9,6.3 0.5,2.9 0.5,1 -0.7,7.5 -2.7,4.4 1,2.9 -0.4,2.5 -0.8,7.3 -1.4,2.7 0.6,4.4 -5.7,1.6 -9.9,4.5 -1,1.9 -2.6,1.9 -2.1,1.5 -1.3,0.8 -5.7,5.3 -2.7,2.1 -5.3,3.2 -5.7,2.4 -6.3,3.4 -1.8,1.5 -5.8,3.6 -3.4,0.6 -3.9,5.5 -4,0.3 -1,1.9 2.3,1.9 -1.5,5.5 -1.3,4.5 -1.1,3.9 -0.8,4.5 0.8,2.4 1.8,7 1,6.1 1.8,2.7 -1,1.5 -3.1,1.9 -5.7,-3.9 -5.5,-1.1 -1.3,0.5 -3.2,-0.6 -4.2,-3.1 -5.2,-1.1 -7.6,-3.4 -2.1,-3.9 -1.3,-6.5 -3.2,-1.9 -0.6,-2.3 0.6,-0.6 0.3,-3.4 -1.3,-0.6 -0.6,-1 1.3,-4.4 -1.6,-2.3 -3.2,-1.3 -3.4,-4.4 -3.6,-6.6 -4.2,-2.6 0.2,-1.9 -5.3,-12.3 -0.8,-4.2 -1.8,-1.9 -0.2,-1.5 -6,-5.3 -2.6,-3.1 v -1.1 l -2.6,-2.1 -6.8,-1.1 -7.4,-0.6 -3.1,-2.3 -4.5,1.8 -3.6,1.5 -2.3,3.2 -1,3.7 -4.4,6.1 -2.4,2.4 -2.6,-1 -1.8,-1.1 -1.9,-0.6 -3.9,-2.3 v -0.6 l -1.8,-1.9 -5.2,-2.1 -7.4,-7.8 -2.3,-4.7 v -8.1 l -3.2,-6.5 -0.5,-2.7 -1.6,-1 -1.1,-2.1 -5,-2.1 -1.3,-1.6 -7.1,-7.9 -1.3,-3.2 -4.7,-2.3 -1.5,-4.4 -2.6,-2.9 -1.9,-0.5 -0.6,-4.7 8,0.7 29,2.7 29,1.6 2.3,-23.8 3.9,-55.6 1.6,-18.7 h 1.4 m 99.4,234.1 -0.6,-7.1 -2.7,-7.2 -0.6,-7 1.5,-8.2 3.3,-6.9 3.5,-5.4 3.2,-3.6 0.6,0.2 -4.8,6.6 -4.4,6.5 -2,6.6 -0.3,5.2 0.9,6.1 2.6,7.2 0.5,5.2 0.2,1.5 z"
   class="area"
   title=""
   inkscape:connector-curvature="0" />
<path
   id="California"
   d="m -571.8,419.5 3.8,-0.5 1.5,-2 0.7,-1.9 -3.2,-0.1 -1.1,-1.8 0.8,-1.7 v -6.2 l 2.2,-1.3 2.7,-2.6 0.4,-4.9 1.6,-3.5 1.9,-2.1 3.3,-1.7 1.3,-0.7 0.8,-1.5 -0.9,-0.9 -1,-1.5 -0.9,-5.3 -2.9,-5.2 0.1,-2.8 -2.2,-3.2 -15,-23.2 -19.4,-28.7 -22.4,-33 -12.7,-19.5 1.8,-7.2 6.8,-25.9 8.1,-31.4 -12.4,-3.3 -13.5,-3.4 -12.6,-4.1 -7.5,-2.1 -11.4,-3 -7.1,-2.4 -1.6,4.7 -0.2,7.4 -5.2,11.8 -3.1,2.6 -0.3,1.1 -1.8,0.8 -1.5,4.2 -0.8,3.2 2.7,4.2 1.6,4.2 1.1,3.6 -0.3,6.5 -1.8,3.1 -0.6,5.8 -1,3.7 1.8,3.9 2.7,4.5 2.3,4.8 1.3,4 -0.3,3.2 -0.3,0.5 v 2.1 l 5.7,6.3 -0.5,2.4 -0.6,2.3 -0.6,1.9 0.2,8.2 2.1,3.7 1.9,2.6 2.7,0.5 1,2.7 -1.1,3.6 -2.1,1.6 h -1.1 l -0.8,3.9 0.5,2.9 3.2,4.4 1.6,5.3 1.5,4.7 1.3,3.1 3.4,5.8 1.5,2.6 0.5,2.9 1.6,1 v 2.4 l -0.8,1.9 -1.8,7.1 -0.5,1.9 2.4,2.7 4.2,0.5 4.5,1.8 3.9,2.1 h 2.9 l 2.9,3.1 2.6,4.8 1.1,2.3 3.9,2.1 4.8,0.8 1.5,2.1 0.6,3.2 -1.5,0.6 0.3,1 3.2,0.8 2.7,0.2 2.9,4.7 3.9,4.2 0.8,2.3 2.6,4.2 0.3,3.2 v 9.4 l 0.5,1.8 10,1.5 19.7,2.7 z m -87.9,-49.8 1.3,1.5 -0.2,1.3 -3.2,-0.1 -0.6,-1.2 -0.6,-1.5 z m 1.9,0 1.2,-0.6 3.6,2.1 3.1,1.2 -0.9,0.6 -4.5,-0.2 -1.6,-1.6 z m 20.7,19.8 1.8,2.3 0.8,1 1.5,0.6 0.6,-1.5 -1,-1.8 -2.7,-2 -1.1,0.2 v 1.2 z m -1.4,8.7 1.8,3.2 1.2,1.9 -1.5,0.2 -1.3,-1.2 c 0,0 -0.7,-1.5 -0.7,-1.9 0,-0.4 0,-2.2 0,-2.2 z"
   class="area"
   title=""
   inkscape:connector-curvature="0" />
<path
   id="Arizona"
   d="m -570.8,420.2 -2.6,2.2 -0.3,1.5 0.5,1 18.9,10.7 12.1,7.6 14.7,8.6 16.8,10 12.3,2.4 25.1,2.7 2.5,-12.5 3.8,-27.2 7,-52.9 4.3,-31 -24.6,-3.7 -27.2,-4.7 -33.4,-6.3 -3,18.1 -0.5,0.5 -1.7,2.6 -2.5,-0.1 -1.3,-2.7 -2.7,-0.3 -0.9,-1.3 h -0.9 l -0.9,0.6 -1.9,1 -0.1,7 -0.3,1.7 -0.6,12.6 -1.5,2.2 -0.6,3.3 2.8,4.9 1.3,5.8 0.8,1 1,0.6 -0.1,2.3 -1.6,1.4 -3.4,1.7 -2,2 -1.5,3.7 -0.6,4.9 -2.9,2.7 -2.1,0.7 -0.1,5.8 -0.5,1.7 0.5,0.8 3.7,0.6 -0.6,2.7 -1.5,2.2 z"
   class="area"
   title=""
   inkscape:connector-curvature="0" />
<path
   id="Nevada"
   d="m -567.8,210.3 21,4.5 9.7,1.9 9.3,1.8 6.6,1.6 -0.6,5.9 -3.5,17.3 -4.1,20 -1.9,9.7 -2.2,13.3 -3.2,16.4 -3.5,15.7 -2,10.2 -2.5,16.8 -0.5,1.1 -1.1,2.5 -1.9,-0.1 -1.1,-2.7 -2.7,-0.5 -1.4,-1 -2,0.3 -0.9,0.7 -1.3,1.3 -0.4,7 -0.6,1.7 -0.4,12.1 -1.3,1.7 -1.9,-2.3 -14.5,-22.7 -19.4,-29 -22.8,-33.8 -12.4,-18.6 1.6,-6.6 7,-25.9 7.9,-31.3 33.6,8.1 13.7,3"
   class="area"
   title=""
   inkscape:connector-curvature="0" />
<path
   id="Utah"
   d="m -455.5,342 -24.6,-3.5 -26.6,-4.9 -33.8,-6 1.6,-9.2 3.2,-15.2 3.2,-16.5 2.2,-13.6 1.9,-8.9 3.8,-20.5 3.5,-17.5 1.1,-5.6 12.7,2.3 12,2.1 10.3,1.8 8.3,1.4 3.7,0.5 -1.5,10.6 -2.3,13.2 7.8,0.9 16.4,1.8 8.2,0.9 -2.1,22 -3.2,22.6 -3.8,27.8 -1.7,11.1 z"
   class="area"
   title=""
   inkscape:connector-curvature="0" />
<path
   id="Colorado"
   d="m -329.9,289.5 1.4,-21.3 -32.1,-3.1 -24.5,-2.7 -37.3,-4.1 -20.7,-2.5 -2.6,22.2 -3.2,22.4 -3.8,28 -1.5,11.1 -0.3,2.8 33.9,3.8 37.7,4.3 32,3.2 16.6,0.8"
   class="area"
   title=""
   inkscape:connector-curvature="0" />
<path
   id="New_Mexico"
   d="m -425.8,463.7 -0.7,-6.1 8.6,0.5 29.5,3.1 28.4,1.4 2,-22.3 3.7,-55.9 1.1,-19.4 2,0.3 v -11.1 l -32.2,-2.4 -36.9,-4.4 -34.5,-4.1 -4.2,30.8 -7,53.2 -3.8,26.9 -2,13.3 15.5,2 1.3,-10 16.7,2.6 z"
   class="area"
   title=""
   inkscape:connector-curvature="0" />
<path
   id="Oregon"
   d="m -568.2,209.4 4.3,-17.9 4.7,-17.9 1.1,-4.2 2.4,-5.6 -0.6,-1.2 h -2.5 l -1.3,-1.7 0.5,-1.5 0.5,-3.2 4.5,-5.5 1.8,-1.1 1.1,-1.1 1.5,-3.6 4,-5.7 3.6,-3.9 0.2,-3.5 -3.3,-2.5 -1.2,-4.5 -13.2,-3.7 -15.1,-3.5 -15.4,0.1 -0.5,-1.4 -5.5,2.1 -4.5,-0.6 -2.4,-1.6 -1.3,0.7 -4.7,-0.2 -1.7,-1.4 -5.3,-2.1 -0.8,0.1 -4.3,-1.5 -1.9,1.8 -6.2,-0.3 -5.9,-4.1 0.7,-0.8 0.2,-7.8 -2.3,-3.9 -4.1,-0.6 -0.7,-2.5 -2.4,-0.5 -5.8,2.1 -2.3,6.5 -3.2,10 -3.2,6.5 -5,14.1 -6.5,13.6 -8.1,12.6 -1.9,2.9 -0.8,8.6 -1.3,6 2.7,3.5 6.7,2.3 11.6,3.3 7.9,2.5 12.4,3.6 13.3,3.6 13.2,3.6"
   class="area"
   title=""
   inkscape:connector-curvature="0" />
<path
   id="North_Dakota"
   d="m -237.2,160.4 -0.4,-7.5 -2,-7.3 -1.8,-13.6 -0.5,-9.8 -2,-3.1 -1.6,-5.4 v -10.3 l 0.7,-3.9 -2.1,-5.5 -28.4,-0.6 -18.6,-0.6 -26.5,-1.3 -24.9,-1.9 -1.3,14.2 -1.4,15.1 -2.3,24.9 -0.5,11 56.8,3.8 z"
   class="area"
   title=""
   inkscape:connector-curvature="0" />
<path
   id="South_Dakota"
   d="m -235.7,235.9 -1,-1.1 -1.5,-3.6 1.8,-3.7 1.1,-5.6 -2.6,-2.1 -0.3,-2.7 0.6,-3 2.1,-0.8 0.3,-5.7 -0.1,-30.1 -0.6,-3 -4.1,-3.6 -1,-2 V 167 l 1.9,-1.3 1.5,-1.9 0.2,-2.7 -57.4,-1.6 -56.2,-3.9 -0.8,5.3 -1.6,15.9 -1.3,17.9 -1.6,24.6 16,1 19.6,1.1 18,1.3 23.8,1.3 10.7,-0.8 2.9,2.3 4.3,3 1,0.8 3.5,-0.9 4,-0.3 2.7,-0.1 3.1,1.2 4.5,1.4 3.1,1.8 0.6,1.9 0.9,1.9 0.7,-0.5 z"
   class="area"
   title=""
   inkscape:connector-curvature="0" />
<path
   id="Nebraska"
   d="m -224.3,279.7 1.4,2.7 0.1,2.1 2.4,3.7 2.7,3.2 h -5 l -43.5,-0.9 -40.8,-0.9 -21.2,-1 1.1,-21.3 -33.4,-2.7 4.3,-44 15.5,1 20.2,1.1 17.8,1.1 23.8,1.1 10.7,-0.5 2.1,2.3 4.8,3 1.1,0.9 4.3,-1.4 3.9,-0.5 2.7,-0.2 1.8,1.4 5,1.6 3,1.6 0.5,1.6 0.9,2.1 h 1.8 0.8 l 1,5.2 2.7,8 1.2,4.6 2.1,3.8 0.5,4.9 1.4,4.3 0.5,6.5"
   class="area"
   title=""
   inkscape:connector-curvature="0" />
<path
   id="Iowa"
   d="m -141.9,234.3 0.2,1.9 2.3,1.1 1.1,1.3 0.3,1.3 3.9,3.2 0.7,2.2 -0.8,2.9 -1.5,3.5 -0.8,2.7 -2.2,1.6 -1.7,0.6 -5.5,1.5 -0.7,2.3 -0.8,2.3 0.6,1.4 1.7,1.7 v 3.7 l -2.2,1.6 -0.5,1.5 v 2.5 l -1.5,0.5 -1.7,1.4 -0.5,1.5 0.5,1.7 -1.4,1.2 -2.3,-2.7 -1.5,-2.6 -8.3,0.8 -10.2,0.6 -25,0.7 -13,0.2 -9.4,0.2 -1.3,0.1 -1.7,-4.5 -0.2,-6.6 -1.6,-4.1 -0.7,-5.3 -2.3,-3.7 -0.9,-4.8 -2.7,-7.5 -1.1,-5.4 -1.4,-2.2 -1.6,-2.7 1.8,-4.3 1.4,-5.7 -2.7,-2.1 -0.5,-2.7 0.9,-2.5 h 1.7 11.5 l 49.6,-0.7 19.9,-0.7 1.9,2.7 1.8,2.6 0.5,0.8 -1.8,2.7 0.5,4.2 2.5,3.9 3,1.8 2.4,0.2 z"
   class="area"
   title=""
   inkscape:connector-curvature="0" />
<path
   id="Mississippi"
   d="m -83.9,499.7 -0.3,1.3 h -5.2 l -1.5,-0.8 -2.1,-0.3 -6.8,1.9 -1.8,-0.8 -2.6,4.2 -1.1,0.8 -1.1,-2.5 -1.1,-3.9 -3.4,-3.2 1.1,-7.5 -0.7,-0.9 -1.8,0.2 -8.2,0.7 -24.2,0.7 -0.5,-1.6 0.7,-8 3.4,-6.2 5.3,-9.1 -0.9,-2.1 h 1.1 l 0.7,-3.2 -2.3,-1.8 0.2,-1.8 -2.1,-4.6 -0.3,-5.3 1.4,-2.7 -0.4,-4.3 -1.4,-3 1.4,-1.4 -1.4,-2.1 0.5,-1.8 0.9,-6.2 3,-2.7 -0.7,-2.1 3.7,-5.3 2.7,-0.9 v -2.5 l -0.7,-1.4 2.7,-5.3 2.7,-1.1 0.1,-3.4 8.7,-0.1 24.1,-1.9 4.6,-0.2 v 6.4 l 0.2,16.7 -0.8,31 -0.2,14.1 2.7,18.8 z"
   class="area"
   title=""
   inkscape:connector-curvature="0" />
<path
   id="Indiana"
   d="m -90.1,333.6 0.1,-2.9 0.5,-4.5 2.3,-2.9 1.8,-3.9 2.6,-4.2 -0.5,-5.8 -1.8,-2.7 -0.3,-3.2 0.8,-5.5 -0.5,-7 -1.3,-16 -1.3,-15.4 -1,-11.7 3.1,0.9 1.5,1 1.1,-0.3 2.1,-1.9 2.8,-1.6 5.1,-0.2 22,-2.3 5.6,-0.5 1.5,16 4.3,36.8 0.6,5.8 -0.5,2.1 1.2,1.8 0.1,1.4 -2.5,1.6 -3.5,1.6 -3.2,0.6 -0.6,4.9 -4.6,3.3 -2.8,4 0.3,2.4 -0.6,1.5 H -59 l -1.6,-1.6 -2.5,1.3 -2.7,1.5 0.2,3.1 -1.2,0.3 -0.5,-1 -2.2,-1.5 -3.3,1.3 -1.6,3 -1.4,-0.8 -1.5,-1.6 -4.5,0.5 -5.6,1 z"
   class="area"
   title=""
   inkscape:connector-curvature="0" />
<path
   id="Illinois"
   d="m -90.7,334.3 v -3.6 l 0.3,-4.9 2.4,-3.1 1.8,-3.8 2.6,-3.9 -0.4,-5.3 -2,-3.5 -0.1,-3.3 0.7,-5.3 -0.8,-7.2 -1.1,-15.8 -1.3,-15 -0.9,-11.6 -0.3,-0.9 -0.8,-2.6 -1.3,-3.7 -1.6,-1.8 -1.5,-2.6 -0.2,-5.5 -9.9,1.3 -27.2,1.7 -8.7,-0.4 0.2,2.4 2.3,0.7 0.9,1.1 0.5,1.8 3.9,3.4 0.7,2.3 -0.7,3.4 -1.8,3.7 -0.7,2.5 -2.3,1.8 -1.8,0.7 -5.3,1.4 -0.7,1.8 -0.7,2.2 0.7,1.4 1.8,1.6 -0.2,4.1 -1.8,1.6 -0.7,1.6 v 2.7 l -1.8,0.5 -1.6,1.1 -0.2,1.4 0.2,2.1 -1.7,1.3 -1,2.8 0.5,3.7 2.3,7.3 7.3,7.5 5.5,3.7 -0.2,4.3 0.9,1.4 6.4,0.5 2.7,1.4 -0.7,3.7 -2.3,5.9 -0.7,3.2 2.3,3.9 6.4,5.3 4.6,0.7 2.1,5 2.1,3.2 -0.9,3 1.6,4.1 1.8,2.1 1.9,-0.8 0.7,-2.2 2,-1.4 3.2,-1.1 3.1,1.2 2.9,1.1 0.8,-0.2 -0.1,-1.2 -1.1,-2.8 0.4,-2.4 2.3,-1.6 2.4,-1 1.2,-0.4 -0.6,-1.3 -0.8,-2.2 1.2,-1.3 z"
   class="area"
   title=""
   inkscape:connector-curvature="0" />
<path
   id="Minnesota"
   d="m -236.6,161.2 -0.5,-8.5 -1.8,-7.3 -1.8,-13.5 -0.5,-9.8 -1.8,-3.4 -1.6,-5 v -10.3 l 0.7,-3.9 -1.8,-5.5 h 30.1 l 0.3,-8.2 0.6,-0.2 2.3,0.5 1.9,0.8 0.8,5.5 1.5,6.1 1.6,1.6 h 4.8 l 0.3,1.5 6.3,0.3 v 2.1 h 4.8 l 0.3,-1.3 1.1,-1.1 2.3,-0.6 1.3,1 h 2.9 l 3.9,2.6 5.3,2.4 2.4,0.5 0.5,-1 1.5,-0.5 0.5,2.9 2.6,1.3 0.5,-0.5 1.3,0.2 v 2.1 l 2.6,1 h 3.1 l 1.6,-0.8 3.2,-3.2 2.6,-0.5 0.8,1.8 0.5,1.3 h 1 l 1,-0.8 8.9,-0.3 1.8,3.1 h 0.6 l 0.7,-1.1 4.4,-0.4 -0.6,2.3 -3.9,1.8 -9.2,4.1 -4.8,2 -3.1,2.6 -2.4,3.6 -2.3,3.9 -1.8,0.8 -4.5,5 -1.3,0.2 -3.8,2.9 -2.8,3.2 -0.2,3 0.2,7.8 -1.6,1.6 -5.2,3.8 -1.8,5.7 2.5,3.6 0.5,2.5 -1.1,3 -0.2,3.7 0.5,7.1 3.4,4.1 h 3 l 2.5,2.3 3.2,1.4 3.7,5 7.1,5 1.8,2.1 0.2,5.5 -20.6,0.7 -60.2,0.5 -0.3,-35.7 -0.5,-3 -4.1,-3.4 -1.1,-1.8 v -1.6 l 2.1,-1.6 1.4,-1.4 z"
   class="area"
   title=""
   inkscape:connector-curvature="0" />
<path
   id="Wisconsin"
   d="m -95.6,229.9 0.4,-3 -1.6,-4.5 -0.6,-6.1 -1.1,-2.4 1,-3.1 0.8,-2.9 1.5,-2.6 -0.6,-3.4 -0.6,-3.6 0.5,-1.8 1.9,-2.4 0.2,-2.7 -0.8,-1.3 0.6,-2.6 0.5,-3.2 2.7,-5.7 2.9,-6.8 0.2,-2.3 -0.3,-1 -0.8,0.5 -4.2,6.3 -2.7,4 -1.9,1.8 -0.8,2.3 -1.5,0.8 -1.1,1.9 -1.5,-0.3 -0.2,-1.8 1.3,-2.4 2.1,-4.7 1.8,-1.6 1.1,-2.3 -1.6,-0.9 -1.4,-1.4 -1.6,-10.3 -3.7,-1.1 -1.4,-2.3 -12.6,-2.7 -2.5,-1.1 -8.2,-2.3 -8.2,-1.1 -4.2,-5.4 -0.5,1.3 -1.1,-0.2 -0.6,-1.1 -2.7,-0.8 -1.1,0.2 -1.8,1 -1,-0.6 0.6,-1.9 1.9,-3.1 1.1,-1.1 -1.9,-1.5 -2.1,0.8 -2.9,1.9 -7.4,3.2 -2.9,0.6 -2.9,-0.5 -1,-0.9 -2.1,2.8 -0.2,2.7 v 8.5 l -1.1,1.6 -5.3,3.9 -2.3,5.9 0.5,0.2 2.5,2.1 0.7,3.2 -1.8,3.2 v 3.9 l 0.5,6.6 3,3 h 3.4 l 1.8,3.2 3.4,0.5 3.9,5.7 7.1,4.1 2.1,2.7 0.9,7.4 0.7,3.3 2.3,1.6 0.2,1.4 -2.1,3.4 0.2,3.2 2.5,3.9 2.5,1.1 3,0.5 1.3,1.4 h 9.2 l 26.1,-1.5 z"
   class="area"
   title=""
   inkscape:connector-curvature="0" />
<path
   id="Missouri"
   d="m -152.7,282.2 -2.5,-3.1 -1.1,-2.3 -7.8,0.7 -9.8,0.5 -25.4,0.9 -13.5,0.2 -7.9,0.1 -2.3,0.1 1.3,2.5 -0.2,2.3 2.5,3.9 3.1,4.1 3.1,2.7 2.3,0.2 1.4,0.9 v 3 l -1.8,1.6 -0.5,2.3 2.1,3.4 2.5,3 2.5,1.8 1.4,11.7 -0.7,35.3 0.2,4.7 0.5,5.4 23.4,-0.1 23.2,-0.7 20.8,-0.8 11.7,-0.2 2.2,3.4 -0.7,3.3 -3.1,2.4 -0.6,1.8 5.4,0.5 3.9,-0.7 1.7,-5.5 0.7,-5.9 2.3,-2 1.7,-1.5 2.1,-1 0.1,-2.9 0.6,-1.7 -1,-1.7 -2.7,0.1 -2.2,-2.6 -1.4,-4.2 0.8,-2.5 -1.9,-3.4 -1.8,-4.6 -4.8,-0.8 -7,-5.6 -1.7,-4.1 0.8,-3.2 2.1,-6.1 0.5,-2.9 -1.9,-1 -6.9,-0.8 -1,-1.7 -0.1,-4.2 -5.5,-3.4 -7,-7.8 -2.3,-7.3 -0.2,-4.2 z"
   class="area"
   title=""
   inkscape:connector-curvature="0" />
<path
   id="Arkansas"
   d="m -117.5,377.7 -3.8,0.9 -6.2,-0.5 0.7,-3 3.2,-2.7 0.5,-2.3 -1.8,-3 -11,0.5 -20.8,0.9 -23.3,0.7 -23.5,0.5 1.6,6.9 v 8.2 l 1.4,11 0.2,37.8 2.3,1.9 3,-1.4 2.7,1.1 0.4,10.3 22.9,-0.1 18.9,-0.8 10.1,-0.2 1.1,-2.1 -0.3,-3.5 -1.8,-3 1.6,-1.5 -1.6,-2.5 0.7,-2.5 1.4,-5.6 2.5,-2.1 -0.7,-2.3 3.7,-5.4 2.7,-1.4 -0.1,-1.5 -0.3,-1.8 2.9,-5.6 2.4,-1.3 0.4,-3.4 1.8,-1.2 0.9,-4.2 -1.3,-4 4,-2.4 0.6,-2 1.2,-4.3 z"
   class="area"
   title=""
   inkscape:connector-curvature="0" />
<path
   id="Oklahoma"
   d="m -333.2,355.3 -10.7,-0.5 -6.4,-0.5 0.3,0.2 -0.7,10.4 22,1.4 32.1,1.3 -2.3,24.4 -0.5,17.8 0.2,1.6 4.3,3.7 2.1,1.1 0.7,-0.2 0.7,-2.1 1.4,1.8 h 2.1 v -1.4 l 2.7,1.4 -0.5,3.9 4.1,0.2 2.5,1.1 4.1,0.7 2.5,1.8 2.3,-2.1 3.4,0.7 2.5,3.4 h 0.9 v 2.3 l 2.3,0.7 2.3,-2.3 1.8,0.7 h 2.5 l 0.9,2.5 4.8,1.8 1.4,-0.7 1.8,-4.1 h 1.1 l 1.1,2.1 4.1,0.7 3.7,1.4 3,0.9 1.8,-0.9 0.7,-2.5 h 4.3 l 2.1,0.9 2.7,-2.1 h 1.1 l 0.7,1.6 h 4.1 l 1.6,-2.1 1.8,0.5 2.1,2.5 3.2,1.8 3.2,0.9 1.9,1.1 -0.4,-37.2 -1.4,-11 -0.2,-8.9 -1.4,-6.5 -0.8,-7.2 -0.1,-3.8 -12.1,0.3 -46.4,-0.5 -45,-2.1 z"
   class="area"
   title=""
   inkscape:connector-curvature="0" />
<path
   id="Kansas"
   d="m -205.1,357.8 -12.6,0.2 -46.1,-0.5 -44.6,-2.1 -24.6,-1.3 4.1,-64.7 21.8,0.8 40.5,1.4 44.1,0.5 h 5.1 l 3.2,3.2 2.8,0.2 0.9,1.1 v 2 l -1.8,1.6 -0.5,2.6 2.2,3.6 2.5,3.1 2.5,2 1.1,11.2 z"
   class="area"
   title=""
   inkscape:connector-curvature="0" />
<path
   id="Louisiana"
   d="m -106.3,505.7 -1,-2.6 -1.1,-3.1 -3.3,-3.5 0.9,-6.8 -0.1,-1.1 -1.3,0.3 -8.2,0.9 -25,0.5 -0.7,-2.4 0.9,-8.5 3.3,-5.9 5,-8.7 -0.6,-2.4 1.3,-0.7 0.5,-2 -2.3,-2.1 -0.1,-1.9 -1.8,-4.3 -0.5,-5.9 -9.7,0.1 -19.2,0.9 h -22.2 v 9.6 l 0.7,9.4 0.7,3.9 2.5,4.1 0.9,5 4.3,5.5 0.2,3.2 0.7,0.7 -0.7,8.5 -3,5 1.6,2.1 -0.7,2.5 -0.7,7.3 -1.4,3.2 0.1,3.6 4.7,-1.5 8.1,-0.3 10.3,3.6 6.5,1.1 3.7,-1.5 3.2,1.1 3.2,1 0.8,-2.1 -3.2,-1.1 -2.6,0.5 -2.7,-1.6 c 0,0 0.2,-1.3 0.8,-1.5 0.6,-0.2 3.1,-1 3.1,-1 l 1.8,1.5 1.8,-1 3.2,0.6 1.5,2.4 0.3,2.3 4.5,0.3 1.8,1.8 -0.8,1.6 -1.3,0.8 1.6,1.6 8.4,3.6 3.6,-1.3 1,-2.4 2.6,-0.6 1.8,-1.5 1.3,1 0.8,2.9 -2.3,0.8 0.6,0.6 3.4,-1.3 2.3,-3.4 0.8,-0.5 -2.1,-0.3 0.8,-1.6 -0.2,-1.5 2.1,-0.5 1.1,-1.3 0.6,0.8 c 0,0 -0.2,3.1 0.6,3.1 0.8,0 4.2,0.6 4.2,0.6 l 4,1.9 1,1.5 h 2.9 l 1.1,1 2.3,-3.1 v -1.5 h -1.3 l -3.4,-2.7 -5.8,-0.8 -3.2,-2.3 1.1,-2.7 2.3,0.3 0.2,-0.6 -1.8,-1 v -0.5 h 3.2 l 1.8,-3.1 -1.3,-1.9 -0.3,-2.7 -1.5,0.2 -1.9,2.1 -0.6,2.6 -3.1,-0.6 -1,-1.8 1.8,-1.9 2,-1.8 z"
   class="area"
   title=""
   inkscape:connector-curvature="0" />
<path
   id="Virginia"
   d="m 120.4,302 -0.1,-1.9 6.5,-2.5 -0.8,3.2 -2.9,3.8 -0.4,4.6 0.5,3.4 -1.8,5 -2.2,1.9 -1.5,-4.6 0.4,-5.4 1.6,-4.2 z m 2.3,28.3 -58.2,12.5 -37.4,5.3 -6.7,-0.4 -2.6,1.9 -7.3,0.2 -8.4,1 -8.9,1 8.5,-4.9 v -2.1 l 1.5,-2.1 10.6,-11.5 3.9,4.5 3.8,1 2.5,-1.1 2.2,-1.3 2.5,1.3 3.9,-1.4 1.9,-4.6 2.6,0.5 2.9,-2.1 1.8,0.5 2.8,-3.7 0.3,-2.1 -1,-1.3 1,-1.9 5.3,-12.3 0.6,-5.7 1.2,-0.5 2.2,2.4 3.9,-0.3 1.9,-7.6 2.8,-0.6 1,-2.7 2.6,-2.3 1.3,-2.3 1.5,-3.4 0.1,-5.1 9.8,3.8 c 0.7,0.3 0.7,-4.8 0.7,-4.8 l 4.1,1.4 -0.5,2.6 8.2,2.9 1.3,1.8 -0.9,3.7 -1.3,1.3 -0.5,1.7 0.5,2.4 2,1.3 3.9,1.4 2.9,1 4.9,0.9 2.2,2.1 3.2,0.4 0.9,1.2 -0.4,4.7 1.4,1.1 -0.5,1.9 1.2,0.8 -0.2,1.4 -2.7,-0.1 0.1,1.6 2.3,1.5 0.1,1.4 1.8,1.8 0.5,2.5 -2.6,1.4 1.6,1.5 5.8,-1.7 z"
   class="area"
   title=""
   inkscape:connector-curvature="0" />
<path
   id="District_of_Columbia"
   d="m 93.3,286.5 -1.1,-1.6 -1,-0.8 1.1,-1.6 2.2,1.5 z"
   class="area"
   title=""
   inkscape:label="#District of Columbia"
   inkscape:connector-curvature="0" />
</svg>